# xmcd
#
# Track frame offsets:
#	150
#	6368
#	22257
#	37281
#	50006
#	63107
#	72269
#	81567
#	95815
#	102565
#	116990
#	124438
#	139416
#	153932
#
# Disc length: 2301 seconds
#
# Revision: 3
# Processed by: cddbd v1.5.2PL0 Copyright (c) Steve Scherf et al.
# Submitted via: EZCDAudioConverter 7.0.6.1
#
DISCID=de08fb0e
DTITLE=Johnny Jewel - Windswept
DYEAR=2017
DGENRE=
TTITLE0=Television Snow
TTITLE1=Windswept
TTITLE2=Saturday
TTITLE3=Missing Pages
TTITLE4=The Crimson Kiss
TTITLE5=Strobe Lights
TTITLE6=Heaven
TTITLE7=Slow Dreams
TTITLE8=Insomnia
TTITLE9=Motel
TTITLE10=Between Worlds
TTITLE11=The Flame
TTITLE12=Stardust
TTITLE13=Blue Moon
EXTD=
EXTT0=
EXTT1=
EXTT2=
EXTT3=
EXTT4=
EXTT5=
EXTT6=
EXTT7=
EXTT8=
EXTT9=
EXTT10=
EXTT11=
EXTT12=
EXTT13=
PLAYORDER=
